{"title":"Criminal.2016.TS.XviD-VAiN","uid":14465908,"size":1548695836,"categoryP":"video","categoryS":"movies","magnet":"?xt=urn:btih:e6bb30eb8543ba90e894c9e8521c423cdd02b1f2&amp;dn=Criminal.2016.TS.XviD-VAiN&amp;tr=udp%3A%2F%2Ftracker.leechers-paradise.org%3A6969&amp;tr=udp%3A%2F%2Fzer0day.ch%3A1337&amp;tr=udp%3A%2F%2Fopen.demonii.com%3A1337&amp;tr=udp%3A%2F%2Ftracker.coppersurfer.tk%3A6969&amp;tr=udp%3A%2F%2Fexodus.desync.com%3A6969","seeders":18,"leechers":9,"uploader":"xxxlavalxxx","files":4,"time":1461855429,"description":"http://extraimago.com/image/amWX\r\n \nhttp://www.imdb.com/title/tt3014866/\r\n\r\n\r\nIn a last-ditch effort to stop a diabolical plot, a dead CIA operative's memories, secrets, and skills are implanted into a death-row inmate in hopes the he will complete the operative's mission.\r\n\r\nDirector: Ariel Vromen\r\nWriters: Douglas Cook, David Weisberg\r\nStars: Kevin Costner, Ryan Reynolds, Gal Gadot\r\nGenres: Action | Crime | Drama | Mystery | Sci-Fi | Thriller\r\nCountry: UK | USA\r\nLanguage: English\r\n\r\n\r\nBasic Information\r\nFormat                      : AVI\r\nFormat/Info                 : Audio Video Interleave\r\nFile size                   : 1.42 GiB\r\nDuration                    : 1h 44mn\r\nOverall bit rate            : 1 948 Kbps\r\nWriting application         : VirtualDubMod 1.5.10.2 (build 2540/release)\r\nWriting library             : VirtualDubMod build 2540/release\r\n\r\nVideo\r\nID                          : 0\r\nFormat                      : MPEG-4 Visual\r\nFormat profile              : Advanced   \r\nFormat settings, BVOP       : 2\r\nFormat settings, QPel       : No\r\nFormat settings, GMC        : No warppoints\r\nFormat settings, Matrix     : Default (H.263)\r\nMuxing mode                 : Packed bitstream\r\nCodec ID                    : XVID\r\nCodec ID/Hint               : XviD\r\nDuration                    : 1h 44mn\r\nBit rate                    : 1 733 Kbps\r\nWidth                       : 720 pixels\r\nHeight                      : 288 pixels\r\nDisplay aspect ratio        : 2.500\r\nFrame rate                  : 60.000 fps\r\nColor space                 : YUV\r\nChroma subsampling          : 4:2:0\r\nBit depth                   : 8 bits\r\nScan type                   : Progressive\r\nCompression mode            : Lossy\r\nBits/(Pixel*Frame)          : 0.139\r\nStream size                 : 1.27 GiB (89%)\r\nWriting library             : XviD 64\r\n\r\nAudio\r\nID                          : 1\r\nFormat                      : AC-3\r\nFormat/Info                 : Audio Coding 3\r\nMode extension              : CM (complete main)\r\nFormat settings, Endianness : Big\r\nCodec ID                    : 2000\r\nDuration                    : 1h 44mn\r\nBit rate mode               : Constant\r\nBit rate                    : 192 Kbps\r\nChannel(s)                  : 2 channels\r\nChannel positions           : Front: L R\r\nSampling rate               : 44.1 KHz\r\nFrame rate                  : 28.711 fps (1536 spf)\r\nCompression mode            : Lossy\r\nStream size                 : 144 MiB (10%)\r\nAlignment                   : Split accross interleaves\r\nInterleave, duration        : 17 ms (1.00 video frame)\r\nInterleave, preload duratio : 500 ms\r\n\r\n\r\nE N C O D E R S . N O T E S . . .       \r\n\r\nSOURCE......: ViDEO...Exclusive-CPG\r\n............: AUDiO...Exclusive-CPG\r\nSAMPLE......: Yippers \r\nADDED NOTE..: most of the work done was to fix the AR. did messs with a few things here and there to make QUALiTY a bit better... \r\n\r\naudio very nice vid ok... \r\n\r\n \nhttp://extraimago.com/image/amWk \nhttp://extraimago.com/image/amWo \nhttp://extraimago.com/image/amWt \nhttp://extraimago.com/image/amWx \nhttp://extraimago.com/image/amW6 \nhttp://extraimago.com/image/amWV","torrent":{"xt":"urn:btih:e6bb30eb8543ba90e894c9e8521c423cdd02b1f2","amp;dn":"Criminal.2016.TS.XviD-VAiN","amp;tr":["udp%3A%2F%2Ftracker.leechers-paradise.org%3A6969","udp%3A%2F%2Fzer0day.ch%3A1337","udp%3A%2F%2Fopen.demonii.com%3A1337","udp%3A%2F%2Ftracker.coppersurfer.tk%3A6969","udp%3A%2F%2Fexodus.desync.com%3A6969"],"infoHash":"e6bb30eb8543ba90e894c9e8521c423cdd02b1f2","infoHashBuffer":{"type":"Buffer","data":[230,187,48,235,133,67,186,144,232,148,201,232,82,28,66,60,221,2,177,242]},"announce":[],"urlList":[]}}